<svg width="796" height="575" viewBox="0 0 796 575" fill="none" xmlns="http://www.w3.org/2000/svg">
<g id="graduate 1" clip-path="url(#clip0)">
<path id="line1" d="M223.924 438.422L207.256 424.383L161.378 481.056L178.046 495.096L223.924 438.422Z" fill="#F55F44"/>
<path id="Vector" opacity="0.05" d="M185.594 499.617L209.27 505.295L225.762 433.749L202.086 428.071L185.594 499.617Z" fill="black"/>
<path id="line2" d="M188.228 500.248L209.27 505.295L225.762 433.749L204.719 428.702L188.228 500.248Z" fill="#F55F44"/>
<path id="paper" d="M46.4457 267.017L17.8404 325.824L443 541L471.605 482.193L46.4457 267.017Z" fill="url(#paint0_linear)"/>
<path id="Vector_2" opacity="0.05" d="M261.532 386.116L224.418 367.332L192.392 433.171L229.506 451.954L261.532 386.116Z" fill="black"/>
<path id="Vector_3" d="M259.918 385.299L226.032 368.149L194.006 433.987L227.893 451.138L259.918 385.299Z" fill="#F55F44"/>
<path id="Vector_4" opacity="0.05" d="M253.464 382.033L230.873 370.599L198.847 436.438L221.438 447.871L253.464 382.033Z" fill="black"/>
<path id="Vector_5" d="M251.85 381.216L232.486 371.416L200.461 437.254L219.824 447.054L251.85 381.216Z" fill="#F55F44"/>
<path id="Vector_6" d="M261.306 566.851C262.921 566.851 264.231 565.541 264.231 563.925C264.231 562.309 262.921 560.999 261.306 560.999C259.69 560.999 258.38 562.309 258.38 563.925C258.38 565.541 259.69 566.851 261.306 566.851Z" fill="#DBDBDB"/>
<g id="Group" opacity="0.5">
<path id="Vector_7" opacity="0.5" d="M14.25 504.714H11.1703V522.516H14.25V504.714Z" fill="#47E6B1"/>
<path id="Vector_8" opacity="0.5" d="M21.436 515.186V512.044H3.98436V515.186H21.436Z" fill="#47E6B1"/>
</g>
<g id="Group_2" opacity="0.5">
<path id="Vector_9" opacity="0.5" d="M788.394 270H785.394V287H788.394V270Z" fill="#47E6B1"/>
<path id="Vector_10" opacity="0.5" d="M795.394 280V277H778.394V280H795.394Z" fill="#47E6B1"/>
</g>
<g id="Group_3" opacity="0.5">
<path id="Vector_11" opacity="0.5" d="M32.7283 61.7804H29.6486V79.5815H32.7283V61.7804Z" fill="#47E6B1"/>
<path id="Vector_12" opacity="0.5" d="M39.9142 72.2516V69.1103H22.4626V72.2516H39.9142Z" fill="#47E6B1"/>
</g>
<g id="Group_4" opacity="0.5">
<path id="Vector_13" opacity="0.5" d="M698.394 33H695.394V50H698.394V33Z" fill="#47E6B1"/>
<path id="Vector_14" opacity="0.5" d="M705.394 43V40H688.394V43H705.394Z" fill="#47E6B1"/>
</g>
<path id="Vector_15" opacity="0.5" d="M169.936 59.1182C169.133 58.7415 168.486 58.0598 168.119 57.203C167.752 56.3462 167.691 55.374 167.947 54.4715C167.988 54.3332 168.014 54.19 168.024 54.0451V54.0451C168.048 53.6316 167.947 53.221 167.737 52.8741C167.526 52.5272 167.218 52.2625 166.857 52.1191C166.496 51.9758 166.102 51.9614 165.733 52.0781C165.364 52.1949 165.039 52.4365 164.808 52.7673V52.7673C164.728 52.8847 164.662 53.0117 164.61 53.1459C164.26 54.0109 163.627 54.7072 162.831 55.1023C162.036 55.4973 161.133 55.5635 160.295 55.2882C160.166 55.2437 160.034 55.2156 159.899 55.2046V55.2046C159.515 55.1794 159.134 55.2881 158.812 55.5145C158.49 55.741 158.244 56.0731 158.111 56.4617C157.978 56.8504 157.964 57.2749 158.073 57.6723C158.181 58.0698 158.405 58.419 158.713 58.6684V58.6684C158.821 58.7542 158.939 58.8258 159.064 58.8818C159.867 59.2585 160.514 59.9402 160.881 60.797C161.247 61.6539 161.309 62.626 161.053 63.5285C161.012 63.6668 160.986 63.81 160.976 63.9549V63.9549C160.952 64.3684 161.053 64.779 161.263 65.1259C161.474 65.4728 161.782 65.7375 162.143 65.8809C162.504 66.0242 162.898 66.0386 163.267 65.9219C163.636 65.8051 163.961 65.5634 164.192 65.2327C164.272 65.1153 164.338 64.9883 164.39 64.8541C164.74 63.9891 165.373 63.2928 166.169 62.8977C166.964 62.5027 167.867 62.4365 168.705 62.7118C168.834 62.7563 168.966 62.7844 169.101 62.7954V62.7954C169.485 62.8206 169.866 62.7119 170.188 62.4855C170.51 62.259 170.756 61.9269 170.889 61.5383C171.022 61.1496 171.036 60.7251 170.927 60.3277C170.819 59.9302 170.595 59.5809 170.287 59.3316V59.3316C170.179 59.2458 170.061 59.1742 169.936 59.1182V59.1182Z" fill="#4D8AF0"/>
<path id="Vector_16" opacity="0.5" d="M394.29 567.456C393.463 567.096 392.797 566.445 392.42 565.626C392.042 564.807 391.979 563.878 392.242 563.015C392.285 562.883 392.312 562.746 392.322 562.608V562.608C392.346 562.213 392.242 561.82 392.026 561.489C391.809 561.157 391.492 560.904 391.121 560.767C390.749 560.63 390.343 560.616 389.964 560.728C389.584 560.839 389.25 561.07 389.012 561.387C388.93 561.499 388.861 561.62 388.808 561.748C388.448 562.575 387.796 563.241 386.977 563.618C386.158 563.996 385.229 564.059 384.367 563.796C384.234 563.753 384.098 563.726 383.959 563.716V563.716C383.564 563.692 383.172 563.796 382.84 564.012C382.509 564.229 382.256 564.546 382.119 564.917C381.982 565.289 381.968 565.695 382.079 566.074C382.191 566.454 382.422 566.788 382.738 567.026C382.85 567.108 382.972 567.177 383.1 567.23C383.927 567.59 384.592 568.242 384.97 569.061C385.347 569.88 385.41 570.809 385.147 571.671C385.105 571.803 385.078 571.94 385.067 572.079V572.079C385.043 572.474 385.147 572.866 385.364 573.198C385.58 573.529 385.897 573.782 386.269 573.919C386.64 574.056 387.046 574.07 387.426 573.959C387.806 573.847 388.139 573.616 388.378 573.3V573.3C388.46 573.188 388.528 573.066 388.582 572.938C388.942 572.111 389.593 571.446 390.412 571.068C391.231 570.691 392.16 570.628 393.023 570.891C393.155 570.933 393.292 570.96 393.43 570.971V570.971C393.825 570.995 394.218 570.891 394.549 570.674C394.881 570.458 395.134 570.141 395.271 569.769C395.408 569.398 395.422 568.992 395.31 568.612C395.199 568.232 394.968 567.898 394.651 567.66V567.66C394.539 567.578 394.418 567.51 394.29 567.456V567.456Z" fill="#4D8AF0"/>
<path id="Vector_17" opacity="0.5" d="M759.394 450C762.708 450 765.394 447.314 765.394 444C765.394 440.686 762.708 438 759.394 438C756.081 438 753.394 440.686 753.394 444C753.394 447.314 756.081 450 759.394 450Z" fill="#F55F44"/>
<path id="Vector_18" opacity="0.5" d="M625 511C628.314 511 631 508.09 631 504.5C631 500.91 628.314 498 625 498C621.686 498 619 500.91 619 504.5C619 508.09 621.686 511 625 511Z" fill="#4D8AF0"/>
<path id="Vector_19" opacity="0.5" d="M103.394 547C106.708 547 109.394 544.314 109.394 541C109.394 537.686 106.708 535 103.394 535C100.081 535 97.3943 537.686 97.3943 541C97.3943 544.314 100.081 547 103.394 547Z" fill="#47E6B1"/>
<path id="Vector_20" opacity="0.5" d="M403 13C406.314 13 409 10.0899 409 6.5C409 2.91015 406.314 0 403 0C399.686 0 397 2.91015 397 6.5C397 10.0899 399.686 13 403 13Z" fill="#F55F44"/>
<path id="Vector_21" d="M191.638 374.695L167 412.337C167 412.337 175.213 451.025 356.92 449.979C538.628 448.934 553 412.337 553 412.337L519.122 362.147L415.436 290L191.638 374.695Z" fill="#6C63FF"/>
<path id="Vector_22" opacity="0.15" d="M191.638 374.695L167 412.337C167 412.337 175.213 451.025 356.92 449.979C538.628 448.934 553 412.337 553 412.337L519.122 362.147L415.436 290L191.638 374.695Z" fill="black"/>
<path id="Vector_23" d="M715 234.492L391.888 380L-2 234.492L359.064 67L536.304 150.4L542.653 153.394L715 234.492Z" fill="#6C63FF"/>
<path id="topOfHat" opacity="0.15" d="M715 234.492L391.888 380L-2 234.492L359.064 67L536.304 150.4L542.653 153.394L715 234.492Z" fill="black"/>
<path id="Vector_24" d="M550 269.621L543.863 270L537 150L543.331 153.01L550 269.621Z" fill="#F5F5F5"/>
<path id="Vector_25" d="M195.745 234.292L167 412C167 412 373.346 344.053 553 412L526.309 223.838C526.309 223.838 285.059 193.524 195.745 234.292Z" fill="#6C63FF"/>
<path id="Vector_26" d="M549 306C565.569 306 579 296.598 579 285C579 273.402 565.569 264 549 264C532.431 264 519 273.402 519 285C519 296.598 532.431 306 549 306Z" fill="#F5F5F5"/>
</g>
<defs>
<linearGradient id="paint0_linear" x1="230.42" y1="433.412" x2="259.947" y2="375.071" gradientUnits="userSpaceOnUse">
<stop stop-color="#808080" stop-opacity="0.25"/>
<stop offset="0.53514" stop-color="#808080" stop-opacity="0.12"/>
<stop offset="1" stop-color="#808080" stop-opacity="0.1"/>
</linearGradient>
<clipPath id="clip0">
<rect width="795.394" height="574.038" fill="white"/>
</clipPath>
</defs>
</svg>
