<svg width="650" height="517" viewBox="0 0 650 517" fill="none" xmlns="http://www.w3.org/2000/svg">
<g id="stepup 1" clip-path="url(#clip0)">
<path id="plant" d="M484.634 510.031C475.641 502.432 470.179 490.428 471.611 478.743C473.044 467.057 481.916 456.314 493.425 453.833C504.933 451.351 518.052 458.221 521.548 469.463C523.471 447.788 525.688 425.206 537.212 406.748C547.646 390.035 565.718 378.076 585.305 375.936C604.891 373.797 625.513 381.877 637.729 397.337C649.944 412.796 652.935 435.271 644.379 453.019C638.077 466.094 626.466 475.824 614.3 483.74C574.989 509.105 527.839 519.42 481.528 512.787" fill="#CBCADB"/>
<path id="Vector" d="M618.36 382.325C602.199 395.489 587.373 410.211 574.096 426.279C553.318 451.34 536.504 479.438 524.24 509.593C523.342 511.793 526.915 512.751 527.802 510.576C547.868 461.566 579.901 418.37 620.972 384.938C622.816 383.436 620.189 380.836 618.36 382.325Z" fill="white"/>
<path id="Vector_2" d="M158.838 515.232H107.838C106.114 515.23 104.462 514.544 103.244 513.326C102.025 512.107 101.34 510.455 101.338 508.732V402.732C101.34 401.008 102.025 399.356 103.244 398.138C104.462 396.919 106.114 396.234 107.838 396.232H158.838C160.561 396.234 162.213 396.919 163.432 398.138C164.65 399.356 165.336 401.008 165.338 402.732V508.732C165.336 510.455 164.65 512.107 163.432 513.326C162.213 514.544 160.561 515.23 158.838 515.232Z" fill="#6C63FF"/>
<path id="line1" d="M522.967 515.732H471.967C470.244 515.73 468.592 515.044 467.373 513.826C466.155 512.607 465.469 510.955 465.467 509.232V34.2316C465.469 32.5083 466.155 30.8562 467.373 29.6376C468.592 28.4191 470.244 27.7336 471.967 27.7316H522.967C524.69 27.7336 526.343 28.4191 527.561 29.6376C528.78 30.8562 529.465 32.5083 529.467 34.2316V509.232C529.465 510.955 528.78 512.607 527.561 513.826C526.343 515.044 524.69 515.73 522.967 515.732Z" fill="#6C63FF"/>
<path id="line2" d="M401.5 516H350.5C348.777 515.999 347.125 515.544 345.906 514.735C344.687 513.925 344.002 512.829 344 511.684V196.316C344.002 195.171 344.687 194.075 345.906 193.265C347.125 192.456 348.777 192.001 350.5 192H401.5C403.223 192.001 404.875 192.456 406.094 193.265C407.313 194.075 407.998 195.171 408 196.316V511.684C407.998 512.829 407.313 513.925 406.094 514.735C404.875 515.544 403.223 515.999 401.5 516Z" fill="#E3E3E3"/>
<path id="line2_2" d="M291.195 519H237.805C236.001 518.999 234.271 518.652 232.995 518.035C231.72 517.419 231.002 516.582 231 515.71V275.29C231.002 274.418 231.72 273.581 232.995 272.965C234.271 272.348 236.001 272.001 237.805 272H291.195C292.999 272.001 294.729 272.348 296.005 272.965C297.28 273.581 297.998 274.418 298 275.29V515.71C297.998 516.582 297.28 517.419 296.005 518.035C294.729 518.652 292.999 518.999 291.195 519Z" fill="#E3E3E3"/>
<path id="Vector_3" d="M205.779 222.358C205.964 220.9 205.827 219.419 205.378 218.019C204.929 216.619 204.178 215.335 203.179 214.257C202.179 213.179 200.956 212.333 199.594 211.779C198.232 211.224 196.766 210.976 195.297 211.05L177.521 178.44L173.521 192.44L185.7 222.326C185.988 224.785 187.167 227.052 189.015 228.699C190.863 230.345 193.25 231.257 195.725 231.261C198.2 231.265 200.591 230.361 202.444 228.72C204.297 227.079 205.484 224.816 205.779 222.358V222.358Z" fill="#A0616A"/>
<path id="Vector_4" d="M68.816 351.113L78.717 358.342L111.312 323.589L96.698 312.92L68.816 351.113Z" fill="#A0616A"/>
<path id="Vector_5" d="M91.1011 381.478L59.9812 358.758L68.7591 346.735L87.8554 360.676C91.0443 363.004 93.1777 366.504 93.7864 370.405C94.3951 374.306 93.4292 378.289 91.1011 381.478V381.478L91.1011 381.478Z" fill="#2F2E41"/>
<path id="Vector_6" d="M121.201 389.377L133.461 389.376L139.293 342.088L121.199 342.089L121.201 389.377Z" fill="#A0616A"/>
<path id="Vector_7" d="M157.105 400.759L118.575 400.761L118.574 385.874L142.218 385.873C146.166 385.873 149.953 387.441 152.745 390.233C155.537 393.025 157.105 396.811 157.105 400.759V400.759V400.759Z" fill="#2F2E41"/>
<path id="Vector_8" d="M158.021 204.941C158.021 204.941 164.021 262.941 149.021 302.941L138.021 378.941H119.021L121.021 288.941L114.021 208.941C114.021 208.941 128.021 172.941 158.021 204.941Z" fill="#2F2E41"/>
<path id="Vector_9" d="M93.021 208.94L113.021 277.94L74.021 339.94L93.521 356.44L138.021 286.94L125.021 201.94L93.021 208.94Z" fill="#2F2E41"/>
<path id="head" d="M144.025 54.2141C157.59 54.2141 168.586 43.2178 168.586 29.6531C168.586 16.0884 157.59 5.09207 144.025 5.09207C130.46 5.09207 119.464 16.0884 119.464 29.6531C119.464 43.2178 130.46 54.2141 144.025 54.2141Z" fill="#A0616A"/>
<path id="Vector_10" d="M123.521 63.4405C123.521 63.4405 138.521 53.4405 155.521 75.4405L160.021 213.94C160.021 213.94 147.021 195.94 120.021 212.94C93.0209 229.94 87.0209 210.94 87.0209 210.94C87.0209 210.94 68.0209 67.9405 123.521 63.4405Z" fill="#CCCCCC"/>
<path id="Vector_11" d="M154.311 75.0913C158.625 75.3245 162.701 77.1448 165.753 80.2019C168.806 83.2591 170.621 87.3372 170.848 91.6516L174.021 151.94L195.021 208.94L183.021 218.94L144.021 150.94L136.036 95.0474C135.67 92.4856 135.877 89.8745 136.641 87.402C137.405 84.9296 138.708 82.6574 140.456 80.7489C142.203 78.8404 144.352 77.3432 146.748 76.3649C149.144 75.3866 151.727 74.9516 154.311 75.0913V75.0913Z" fill="#CCCCCC"/>
<path id="hear" d="M125.978 48.0764C129.993 52.3535 137.45 50.0574 137.973 44.2143C138.014 43.7606 138.011 43.3041 137.964 42.851C137.694 40.2627 136.199 37.9129 136.557 35.1801C136.638 34.4999 136.891 33.8517 137.293 33.2969C140.493 29.0123 148.004 35.2133 151.023 31.3346C152.875 28.9562 150.699 25.2117 152.12 22.5534C153.995 19.045 159.55 20.7757 163.033 18.8544C166.909 16.7166 166.677 10.7701 164.126 7.15317C161.014 2.74217 155.559 0.388418 150.172 0.0491675C144.784 -0.290082 139.434 1.16626 134.405 3.12632C128.69 5.35332 123.023 8.43113 119.507 13.4559C115.23 19.5667 114.819 27.7819 116.957 34.9272C118.259 39.2738 122.699 44.5836 125.978 48.0764Z" fill="#2F2E41"/>
<path id="Vector_12" d="M648.485 515.807H1.1907C0.875513 515.806 0.573534 515.68 0.350983 515.457C0.128431 515.234 0.003479 514.932 0.003479 514.617C0.003479 514.301 0.128431 513.999 0.350983 513.776C0.573534 513.553 0.875513 513.427 1.1907 513.426H648.485C648.8 513.427 649.102 513.553 649.324 513.776C649.547 513.999 649.672 514.301 649.672 514.617C649.672 514.932 649.547 515.234 649.324 515.457C649.102 515.68 648.8 515.806 648.485 515.807Z" fill="#3F3D56"/>
</g>
<defs>
<clipPath id="clip0">
<rect width="649.675" height="516.232" fill="white"/>
</clipPath>
</defs>
</svg>
